<?xml version="1.0" encoding="UTF-8"?>
<svg xmlns="http://www.w3.org/2000/svg" version="1.1" viewBox="0 0 189.7 50.3">
  <defs>
    <style>
      .cls-1 {
        fill: #f8dda4;
      }

      .cls-2 {
        fill: #980000;
      }

      .cls-3 {
        fill: #f8dda5;
      }
    </style>
  </defs>
  <!-- Generator: Adobe Illustrator 28.6.0, SVG Export Plug-In . SVG Version: 1.2.0 Build 709)  -->
  <g>
    <g id="Layer_1">
      <g id="Layer_1-2" data-name="Layer_1">
        <g id="Layer_1-2">
          <g id="Berd">
            <path class="cls-1" d="M70.2,10.8c.3.2.3.4.3.8-.5,6.9-.1,13.7-.2,20.6,0,1.4.3,1.8,1.7,2,.5,0,.7.3.7.7,0,.2,0,.3-.3.3-1.5,0-2.9.3-4.3.6-.5.1-.7,0-.7-.6,0-.8,0-1.6,0-2.5-.3.4-.6.7-.8,1-2.3,3.2-7.7,3.3-9.8-.6-2.3-4.1-1.3-9.7,3.5-12.1,2-1,4-.8,6-.2.3.1.7.2,1,.4,0,0,0,0,.1,0v-2.7c0-1.4,0-2.8,0-4.2,0-1-.4-1.4-1.4-1.6-.2,0-.4,0-.5,0-.4,0-.5-.3-.5-.6,0-.4.2-.4.5-.4,1.3,0,2.7-.1,4-.6,0,0,.2,0,.2-.1h.6s0,0,0,0ZM67.3,25c0-1.5-.5-2.2-1.7-2.8,0,0-.1,0-.2-.1-2.3-1.1-5.2-1-6.2,2.5-.5,1.7-.5,3.3-.2,5,.3,1.4.8,2.6,1.8,3.6,1,.9,2.1,1.3,3.4.8,1.8-.9,2.9-2.4,3-4.5,0-.8,0-3.8,0-4.5h0Z"/>
            <path class="cls-3" d="M12.6,23.2c-1.4-.5-2.5-1.2-3.3-2.4-1.8-2.6-.9-6.1,2.1-7.5,1.3-.6,2.8-.8,4.2-.8s3.9,0,5.9,0c.8,0,1.5,0,2.3-.1.2,0,.5-.2.6.2,0,.4.1.8-.4.9-.4.1-.8.2-1.2.3-1.1.3-1.3.5-1.3,1.6v17.2c0,1,.1,1.2,1.1,1.5.4.1.8.2,1.2.3.5.1.7.6.5,1,0,.2-.2.2-.3.1-3.7-.3-7.3,0-11-.2-2.1-.1-4.1-.9-5.6-2.6-1.5-1.8-1.8-5.2-.3-7.1,1-1.2,2.4-1.9,3.9-2.3.4-.1.9-.2,1.5-.3h0s0,0,0,0ZM18.3,28.7v-4c0-.3,0-.4-.3-.4-1.1,0-2.2,0-3.3.1-2.9.5-4.9,2.1-4.8,5.3,0,2.2,1.2,3.6,3.2,4,.9.2,1.9.3,2.8.3.5,0,1.1,0,1.5-.3.5-.2.8-.6.8-1.2,0-1.3,0-2.6,0-3.9h0ZM18.3,18.4v-4c0-.3,0-.4-.3-.4-.9,0-1.8,0-2.7.2-1.5.3-2.7,1-3.1,2.6-.2.7-.2,1.4-.1,2.2.2,1.6.9,2.8,2.6,3.3,1.1.4,2.3.4,3.4.5.3,0,.3-.2.3-.4v-4h0Z"/>
            <path class="cls-3" d="M25.4,28.5c0-3.9,2.6-7.4,6.4-8.2,2.1-.4,4.1-.1,5.6,1.5,1,1,1.4,2.4,1.6,3.8,0,.4,0,.8,0,1.1,0,.5-.1.6-.6.6-1.5,0-3,.1-4.6.2l-5,.2c-.2,0-.3,0-.3.3,0,2,.9,4.5,3.2,5.6,2,.9,4.2.5,5.8-1,.2-.2.3-.3.5-.5.3-.2.6-.1.8.1.2.3.2.5,0,.7-1.9,2.4-4.4,3.2-7.4,3-4.1-.3-6.3-3.6-6.3-7.4,0,0,0,0,0,0ZM29.4,26.4h0c1.9-.1,3.9-.2,5.8-.3.4,0,.6-.2.6-.6,0-.7-.2-1.4-.6-2.1-.6-1.2-1.5-1.9-2.9-1.9-1.4,0-2.4.7-3,1.9-.4.8-.5,1.6-.6,2.5,0,.5,0,.6.5.5,0,0,.2,0,.2,0h0Z"/>
            <path class="cls-3" d="M47.1,23c.7-.8,1.4-1.4,2.2-2,1.1-.8,2.2-1.1,3.5-.8.5.1.9.5,1.1,1,.2.5,0,1-.4,1.3-.3.2-.7.4-1,.6-.6.3-1,.5-1.7,0-.8-.7-1.8-.5-2.6.3-.9,1-1.1,2.1-1.2,3.4,0,2,0,3.9,0,5.9s.2,1.1,1,1.4c.7.3,1.4.4,2.1.5.4,0,.6.6.4.9,0,.1-.2,0-.4,0-1.1,0-2.2,0-3.3-.1-1.5,0-3.1,0-4.6.1-.2,0-.5.1-.5-.2,0-.3-.1-.7.3-.8.5,0,.9-.2,1.4-.4.3-.2.6-.4.6-.8,0-3.2,0-6.4,0-9.6,0-1.3-.4-1.7-1.7-1.9-.7-.1-.9-.3-.7-.8,0-.2.1-.2.3-.2,1.4,0,2.8-.2,4.2-.6.7-.2.9,0,.9.8v2h0s0,0,0,0Z"/>
          </g>
          <g id="Vay_x27_e">
            <path class="cls-1" d="M129.9,30.4c2.1-5,4.1-10,6.1-15,.4-.9.1-1.3-.8-1.6-.4-.1-.7-.1-1.1-.2-.4-.1-.7-.8-.4-1.1.1-.1.2,0,.4,0,2.1.2,4.3.2,6.4,0,.2,0,.3,0,.4.3.1.7,0,.9-.7,1-1.2,0-1.9.7-2.4,1.9-2.7,6.7-5.5,13.3-8.3,19.9,0,.2-.1.5-.5.5-.3,0-.5-.2-.6-.5-.4-.8-.7-1.7-1-2.6-2.4-6-4.8-11.9-7.2-17.9-.2-.6-.7-1-1.3-1.1-.4,0-.7-.2-1.1-.2-.4,0-.5-.2-.5-.6,0-.7,0-.7.7-.6,2.6.2,5.2.2,7.8,0,.3,0,.6-.1.6.3,0,.4,0,.7-.4.8-.4,0-.8.1-1.3.3-.7.3-.9.7-.7,1.4,1.9,4.9,3.9,9.9,5.8,14.8,0,0,0,.1.1.2h0Z"/>
            <path class="cls-3" d="M147.4,33.3c-.6.9-1.2,1.7-2.3,2.1-1.6.6-3.2.7-4.8.2-2.4-.8-3.2-3.6-1.6-5.6.9-1.2,2.2-1.8,3.6-2.3,1.3-.4,2.6-.6,3.9-1,.9-.3,1-.4,1-1.3,0-.9,0-1.8-.5-2.6-.3-.6-.8-1-1.5-1.2-1.6-.4-2.7,0-3.2,1.7-.3,1-.9,1.5-1.9,1.7-.4,0-.7.2-1.1.2-.3,0-.5-.1-.5-.4-.1-.7.1-1.3.5-1.8,1.3-1.6,3-2.4,5-2.7,1-.2,1.9,0,2.9.1,2,.4,3.2,1.8,3.2,3.9,0,2.4,0,4.8,0,7.2,0,.6,0,1.2.2,1.8.3,1.2.8,1.5,2,1.3.3,0,.5,0,.6.3.1.3,0,.5-.3.7-1,.5-2,.6-3.1.3-1-.3-1.7-1-2-2,0-.1,0-.3-.2-.4h0ZM147.2,29.1v-1.2c0-.2,0-.3-.2-.2-1.1.2-2.2.4-3.3.8-2.1.9-2.7,2.3-2.2,4.3.3,1.2,1.5,1.8,2.7,1.6,1.3-.2,2.1-1,2.6-2.1.5-1,.4-2.1.4-3.2h0Z"/>
            <path class="cls-3" d="M170.6,28.4c-.1-3.8,2.8-7.5,6.4-8.1,3.4-.6,6.3.6,7.1,4.7.1.6.1,1.1.2,1.7,0,.5-.1.6-.6.6-2.3,0-4.5.2-6.8.3-.9,0-1.9.1-2.8.1-.2,0-.3,0-.3.2-.2,2.2,1.4,4.8,3.4,5.7,2,.8,4.3.3,5.8-1.3.2-.2.3-.4.6-.4.3,0,.5.2.7.4.2.2,0,.4-.1.5-2.4,3.2-6.9,3.7-9.7,2.4-2.2-1-3.4-2.8-3.8-5.1-.1-.6-.1-1.1-.1-1.7h0ZM174.5,26.4h0c1.9-.1,3.9-.2,5.8-.3.6,0,.7-.1.6-.7,0-.7-.2-1.4-.5-2-.6-1.1-1.5-1.9-2.8-1.9-1.4,0-2.4.6-3.1,1.8-.5.9-.6,1.8-.7,2.8,0,.2,0,.3.3.3.1,0,.3,0,.4,0h0Z"/>
            <path class="cls-3" d="M161.9,31.6c1.1-2.7,2.3-5.2,3.3-7.8,0,0,0-.1,0-.2.5-1.5.4-1.5-1-2.1-.2,0-.4-.1-.5-.3-.1-.2,0-.4,0-.6,0-.2.2-.1.4-.1,1.6,0,3.2.1,4.8,0,.2,0,.4,0,.4.2,0,.3,0,.5-.2.7-.2,0-.5.1-.7.2-.6.1-1,.5-1.3,1.1-.9,2.2-1.9,4.3-2.8,6.5-1.6,3.7-3.1,7.4-4.7,11.1-.9,2.1-2.4,3.4-4.8,3.6-.8,0-1.1-.2-.9-.9,0-.6.2-1.1.6-1.6.3-.4.6-.5,1.1-.5,1.6.3,2.3,0,2.9-1.6.5-1.2,1.1-2.5,1.6-3.7,0-.2.1-.4,0-.6-1.8-4-3.6-7.9-5.4-11.9-.4-.9-.9-1.6-2-1.6-.4,0-.5-.3-.5-.6,0-.3.2-.4.4-.4,1.4.1,2.9,0,4.3,0,.7,0,1.5,0,2.2,0,.2,0,.4,0,.4.3,0,.3,0,.5-.3.6-.3,0-.7.1-1,.2-.4.1-.6.4-.4.8.4,1.5,1.1,2.8,1.7,4.2.7,1.6,1.4,3.2,2.2,4.9h0Z"/>
            <path class="cls-2" d="M175.4,15.4c0,1.2-.8,2.4-1.8,3.4-.5.5-1,.9-1.5,1.2-.2.2-.4.4-.7,0-.2-.3-.3-.6,0-.9.3-.3.6-.6.9-.9.4-.5.7-.9.9-1.5.2-.7,0-1.3-.6-1.8-.3-.3-.6-.5-1-.6-.6-.3-.8-.7-.5-1.3.2-.6.7-1,1.3-1.3.1,0,.2,0,.3,0,1.5.4,2.8,2,2.8,3.8h0Z"/>
          </g>
          <g id="Watch_Gear_Vector">
            <path class="cls-2" d="M96.5,46.6h-1.4c-.3-.4-.3-1-.4-1.5,0-.5-.3-.6-.8-.6-.5,0-.5.4-.6.7-.6,1.3-.6,1.3-1.9.9-.3,0-.4-.2-.4-.5,0-.4,0-.9,0-1.3,0-.5-.4-.3-.6-.5-.2-.1-.4,0-.5.1-.2.4-.5.8-.8,1.1,0,0-.1.3-.3.2-.5-.2-1-.3-1.4-.6-.2-.2,0-.6,0-1,0-.2,0-.3,0-.4,0-.4,0-.6-.4-.8-.5-.3-.6,0-.9.3-.3.3-.6.9-1,.8-.4,0-.8-.5-1.2-.7-.2-.1-.2-.3-.1-.5.2-.4.3-.9.5-1.3,0-.2,0-.3-.1-.5-.4-.4-.7-.4-1.1,0-.3.2-.6.4-.9.6,0,0-.2.2-.3,0-.4-.4-.8-.7-1.1-1.1-.2-.2.3-.5.4-.8.1-.2.2-.4.4-.6.2-.2,0-.3,0-.6-.3-.5-.6-.4-1.1-.2-1.3.5-1.3.5-2-.7-.1-.2-.2-.4,0-.5.3-.3.7-.7,1-1,.3-.3,0-.5-.2-.8,0-.2-.2-.3-.4-.2-.5.1-.9.2-1.4.2-.1,0-.3,0-.3,0-.2-.5-.5-.9-.5-1.4,0-.3.5-.5.8-.7.1,0,.2-.2.4-.2.3-.2.4-.3.3-.7-.1-.4-.3-.6-.8-.6-.4,0-.7,0-1.1,0-.2,0-.4,0-.4-.3,0-.4-.1-.7-.2-1.1,0-.2,0-.4.2-.5.4-.2.8-.4,1.3-.5.2,0,.3-.2.3-.4,0-.5-.1-.8-.7-.8-.3,0-.7-.1-1-.2-.2,0-.3-.1-.4-.3v-1.4c.4-.4,1-.4,1.4-.5.5-.1.6-.3.7-.8,0-.5-.4-.5-.7-.6-1.2-.5-1.2-.5-.9-1.8,0-.4.2-.5.6-.5.3,0,.6,0,.9,0,.5,0,.7-.1.8-.6.2-.5-.2-.6-.5-.8-1.2-.8-1.2-.8-.6-2.1,0-.2.2-.3.4-.2.4,0,.9.1,1.3.2.3.1.4,0,.6-.3.3-.4.2-.7-.2-1-1-1-1-1-.2-2.1.2-.2.3-.3.6-.1.4.2.8.3,1.2.5.3.1.4,0,.6-.1.4-.4.3-.6,0-1-.8-1.2-.8-1.2.3-2.2.2-.1.3-.2.5,0,.4.3.8.5,1.2.8,0,0,.2.2.3,0,.6-.3.7-.5.4-1.1-.5-1.3-.5-1.3.7-2.1.2-.1.3-.1.5,0,.3.3.6.6,1,.9,0,.1.2.2.4.2.6-.1.8-.4.6-1-.3-1.4-.3-1.4,1.1-1.9.2,0,.3,0,.5.2.2.4.5.7.8,1.1.2.4.5,0,.8,0,.3,0,.4-.1.4-.4,0-.5,0-.9,0-1.4,0-.2,0-.3.3-.4,1.4-.4,1.4-.4,2,.9,0,0,.1.2.1.3,0,.5.4.4.8.4.4,0,.4-.2.5-.5.2-.5,0-1.1.5-1.6h1.4c.1.1.3.2.3.4,0,.4.2.7.2,1.1,0,.5.3.6.8.6.5,0,.5-.3.6-.6.6-1.3.6-1.3,2-.9.3,0,.3.2.3.4,0,.5,0,1,0,1.4,0,.4.3.3.5.4.2.1.4.1.5-.1.3-.4.6-.8.8-1.2,0,0,0-.3.3-.2.5.2,1,.3,1.4.7.2.2,0,.7,0,1.1,0,.1,0,.2,0,.3,0,.3-.2.6.2.7.3.2.6.3.9,0,0-.1.2-.2.3-.3.8-.8.8-.8,1.8-.1.4.3.6.5.3.9-.2.3-.3.7-.4,1,0,.2,0,.4.1.5.3.4.6.3,1,0,1.2-.8,1.2-.8,2.2.2.2.2.2.3,0,.6-.3.4-.5.8-.8,1.2,0,.1-.2.2,0,.4.3.5.5.6,1.1.4.3-.1.7-.3,1-.4.1,0,.3-.2.4,0,.3.4.7.9.9,1.4,0,.2-.4.5-.6.7-.1.1-.2.3-.4.4-.3.2-.3.5-.2.8.2.5.6.3.9.3.4,0,1-.4,1.3-.1.3.3.4.8.6,1.2.1.2,0,.4-.2.5-.4.2-.8.5-1.1.8,0,0-.2.1-.2.3,0,.5.3.8.8.8.5,0,1.1-.2,1.4.1.3.3.2.9.4,1.4h0c0,.2,0,.4-.2.5-.4.2-.8.4-1.3.5-.2,0-.3.2-.3.5,0,.4,0,.7.5.7.3,0,.6.1.9.2.3,0,.6,0,.7.4v1.4c-.1.2-.3.3-.5.3-.4,0-.7.2-1.1.2-.3,0-.5.1-.5.5,0,.4,0,.6.4.7.4.1.7.3,1.1.5.2,0,.3.2.3.4,0,.4-.2.8-.3,1.2,0,.2-.2.3-.4.3-.5,0-1,0-1.4,0,0,0-.2,0-.3.1-.3.5-.2.8.3,1.1.3.2.6.4.9.7.1,0,.2.2.2.3-.2.5-.3,1.1-.6,1.4-.2.2-.7,0-1.1-.1-.2,0-.4,0-.6,0-.2,0-.3,0-.4.2-.4.5-.2.8.2,1.1.3.3.9.6.8,1,0,.4-.5.8-.7,1.2-.1.2-.3.2-.5.1-.4-.2-.8-.3-1.2-.5-.4-.2-.5.1-.8.3-.3.2-.1.4,0,.6.2.4.4.7.7,1.1.1.2.1.3,0,.5-.7.8-1.4.9-2.2.3-1.3-.8,0,0,0,0-.3-.3-.6-.3-1,0s0,.6,0,.8c.5,1.4.5,1.4-.7,2.1-.2.1-.4.1-.5,0-.3-.3-.6-.6-.9-.9-.2-.2-.4-.2-.6,0-.4.2-.5.4-.4.8.3,1.5.3,1.5-1,2-.3.1-.4,0-.6-.2-.2-.3-.5-.6-.6-.9-.2-.4-.5-.3-.8-.2-.4,0-.4.3-.4.6,0,1.6,0,1.6-1.5,1.8-.3,0-.4,0-.4-.2-.2-.4-.4-.8-.6-1.3,0,0,0-.2-.2-.3-.6,0-.8,0-.9.7,0,.3-.2.7-.2,1,0,.2-.2.3-.3.5h0q0,0,0,0ZM112.4,26.2c0-9.1-7.4-16.4-16.2-16.6-9.3-.1-16.7,7.4-16.8,16.3-.1,9.3,7.4,16.7,16.3,16.8,9.3.1,16.8-7.5,16.8-16.5Z"/>
            <path class="cls-2" d="M110.8,26.2c.1,8.1-6.8,15.2-15.4,14.9-7.8-.2-14.5-6.7-14.5-15,0-8.2,6.9-15.2,15.5-14.9,7.9.2,14.5,6.8,14.4,15ZM85.9,21c1.7.5,3.3,1,4.9,1.6.2,0,.2,0,.3,0,.7-.9,1.6-1.5,2.6-1.9.2,0,.2-.1.2-.3v-5.1c-3.6.7-6.2,2.6-8,5.8h0ZM97.7,15.1v5.1c0,.2,0,.3.3.4.9.4,1.8.9,2.4,1.7.2.2.3.2.5.1,1.4-.5,2.9-1,4.3-1.4.4-.1.4-.2.2-.5-1.8-2.9-4.4-4.8-7.8-5.4h0ZM84.8,24.6c-.2,1-.2,2,0,3.1.3,2.3,1.3,4.3,2.8,6.1.2.2.3.2.5,0,.9-1.3,1.8-2.5,2.6-3.8.1-.2.1-.3,0-.5-.6-.9-.9-1.8-.9-2.8,0-.3-.1-.4-.4-.5-1.6-.5-3.1-1-4.7-1.5h0ZM95.8,37.4c1.6,0,3.2-.3,4.7-1,.2,0,.3-.1.1-.4-.9-1.3-1.8-2.5-2.7-3.8-.1-.2-.2-.2-.4-.1-1.1.3-2.2.3-3.3,0-.2,0-.3,0-.4.2-.9,1.3-1.8,2.5-2.6,3.8-.2.2-.1.3.1.4,1.4.6,3,1,4.6,1h0ZM106.9,24.6c-1.6.5-3.1,1-4.6,1.5-.2,0-.4.2-.4.5,0,1.1-.3,2-.9,2.9-.1.2-.1.3,0,.5.9,1.2,1.8,2.5,2.7,3.8.1.2.2.3.4,0,2.3-2.6,3.3-5.7,2.9-9.2h0ZM95.9,28.3c1.2,0,2.2-1,2.2-2.2,0-1.2-1-2.2-2.2-2.2-1.2,0-2.2,1-2.2,2.2,0,1.2,1,2.1,2.2,2.1h0Z"/>
          </g>
        </g>
      </g>
    </g>
  </g>
</svg>