<?xml version="1.0" encoding="UTF-8"?>
<svg xmlns="http://www.w3.org/2000/svg" version="1.1" xmlns:cc="http://web.resource.org/cc/" xmlns:dc="http://purl.org/dc/elements/1.1/" xmlns:inkscape="http://www.inkscape.org/namespaces/inkscape" xmlns:rdf="http://www.w3.org/1999/02/22-rdf-syntax-ns#" xmlns:sodipodi="http://inkscape.sourceforge.net/DTD/sodipodi-0.dtd" xmlns:svg="http://www.w3.org/2000/svg" viewBox="0 0 145 145">
  <defs>
    <style>
      .cls-1 {
        fill: #fff;
      }

      .cls-2 {
        isolation: isolate;
      }
    </style>
  </defs>
  <!-- Generator: Adobe Illustrator 28.6.0, SVG Export Plug-In . SVG Version: 1.2.0 Build 709)  -->
  <g>
    <g id="svg2" inkscape:version="0.43" sodipodi:docbase="D:\Temp" sodipodi:docname="At_sign2.svg" sodipodi:version="0.32">
      <sodipodi:namedview id="base" bordercolor="#666666" borderopacity="1.0" inkscape:current-layer="svg2" inkscape:cx="80" inkscape:cy="62.841823" inkscape:pageopacity="0.0" inkscape:pageshadow="2" inkscape:window-height="938" inkscape:window-width="1280" inkscape:window-x="-4" inkscape:window-y="-4" inkscape:zoom="2.33125" pagecolor="#ffffff"/>
      <g class="cls-2">
        <path class="cls-1" d="M79.7,98.4c-3,3.5-6.5,6.3-10.2,8.5-3.8,2.1-7.6,3.2-11.4,3.2s-8.2-1.2-12.2-3.7c-3.9-2.4-7.1-6.2-9.6-11.2s-3.7-10.6-3.7-16.7,1.9-14.9,5.7-22.4c3.8-7.5,8.6-13.1,14.2-16.8,5.7-3.8,11.2-5.6,16.5-5.6s8,1.1,11.7,3.2c3.7,2.1,6.9,5.4,9.6,9.7l2.4-10.9h12.6l-10.1,47.2c-1.4,6.6-2.1,10.2-2.1,10.9,0,1.3.5,2.4,1.4,3.3,1,.9,2.1,1.4,3.5,1.4,2.5,0,5.7-1.4,9.8-4.3,5.3-3.8,9.6-8.8,12.7-15.1,3.1-6.3,4.7-12.8,4.7-19.5s-2-15.1-6-21.9c-4-6.8-10-12.2-17.9-16.3s-16.7-6.1-26.3-6.1-21,2.6-30.1,7.7-16.1,12.5-21.1,22.1c-5,9.6-7.5,19.9-7.5,30.8s2.5,21.4,7.5,29.7,12.2,14.4,21.7,18.4c9.4,4,19.9,5.9,31.4,5.9s22.6-2.1,30.9-6.2c8.3-4.1,14.5-9.1,18.6-15h12.7c-2.4,4.9-6.5,9.9-12.3,15-5.8,5.1-12.7,9.2-20.7,12.1-8,3-17.7,4.5-29,4.5s-20-1.3-28.8-4-16.3-6.7-22.5-12.1c-6.2-5.4-10.9-11.5-14-18.5-3.9-8.9-5.9-18.4-5.9-28.7s2.3-22.3,7-32.7c5.7-12.7,13.8-22.4,24.4-29.2,10.5-6.8,23.3-10.1,38.3-10.1s22.1,2.4,31.3,7.1c9.3,4.8,16.6,11.8,21.9,21.3,4.5,8.1,6.8,16.9,6.8,26.4,0,13.6-4.8,25.7-14.3,36.2-8.5,9.5-17.9,14.2-28,14.2s-5.8-.5-7.8-1.5c-2-1-3.5-2.4-4.4-4.2-.6-1.2-1.1-3.2-1.3-6ZM45.7,79.3c0,6.4,1.5,11.4,4.6,15,3,3.6,6.5,5.3,10.5,5.3s5.4-.8,8.3-2.4c2.9-1.6,5.7-3.9,8.3-7,2.6-3.1,4.8-7,6.5-11.8,1.7-4.8,2.5-9.5,2.5-14.3s-1.6-11.3-4.7-14.8-7-5.3-11.6-5.3-5.8.8-8.5,2.3c-2.6,1.5-5.2,4-7.7,7.3-2.5,3.4-4.5,7.5-6,12.3-1.5,4.8-2.2,9.3-2.2,13.3Z"/>
      </g>
    </g>
  </g>
</svg>