<?xml version="1.0" encoding="UTF-8"?>
<svg xmlns="http://www.w3.org/2000/svg" version="1.1" viewBox="0 0 256 256">
  <defs>
    <style>
      .cls-1 {
        fill: #fff;
      }
    </style>
  </defs>
  <!-- Generator: Adobe Illustrator 28.6.0, SVG Export Plug-In . SVG Version: 1.2.0 Build 709)  -->
  <g>
    <g id="Layer_1">
      <g>
        <path class="cls-1" d="M48.2,9.5c.2,0,.4,0,.6,0,.4,0,.7,0,1.1,0,.5,0,1,0,1.4.1.4,0,.8.1,1.1.2.5,0,.9.1,1.4.2.4,0,.7.2,1.2.3h.2c.4.1.7.2,1.1.3.3.1.7.2,1,.4h.2c0,0,.3.2.3.2.3,0,.6.2.8.3.3.1.7.3,1,.5h.3c0,.1.5.3.5.3.2,0,.4.2.6.3.4.2.7.4,1,.6l.3.2.5.3c.1,0,.3.2.4.2.4.3.8.6,1.3.9h.2c.2.3.4.4.6.5h.2c.7.7,1.4,1.3,2,1.9l22.9,22.9c.6.6,1.2,1.3,1.8,2v.2c.3.2.4.4.6.6v.2c.4.4.8.8,1,1.2,0,.1.2.3.2.4l.3.5.2.3c.2.3.4.7.6,1,.1.2.2.4.3.6l.2.5v.3c.3.3.5.7.6,1,.1.3.2.5.3.8v.4c.1,0,.2.2.2.2.1.3.3.7.4,1,.1.4.2.7.3,1.1v.3c.2.4.3.7.3,1.1,0,.4.2.9.2,1.3,0,.4.1.8.2,1.2,0,.5,0,1,.1,1.4,0,.4,0,.7,0,1.1,0,.5,0,1,0,1.5,0,.3,0,.7,0,1,0,.5,0,1-.1,1.6,0,.3,0,.6-.1.9,0,.5-.2,1.1-.3,1.6,0,.3-.1.5-.2.8-.1.6-.3,1.1-.5,1.7,0,.1,0,.3-.1.4v.3c-.3.6-.5,1.1-.8,1.7v.2c-.1,0-.3.4-.3.4-.3.6-.5,1.2-.9,1.8l-.2.4c-.4.7-.7,1.2-1,1.7,0,.1-.2.3-.3.4-.5.7-1,1.3-1.4,1.8-.6.8-1.1,1.3-1.6,1.8l-15.5,15.5c-5.3,5.3-5.3,13.8,0,19.1l67,67c2.6,2.6,5.9,4,9.6,4s7-1.4,9.6-4l15.5-15.5c.5-.5,1-1,1.8-1.6.5-.4,1.1-.9,1.8-1.4.1,0,.2-.2.4-.3.4-.3,1-.6,1.7-1l.4-.3c.6-.3,1.2-.6,1.8-.9l.4-.2h.2c.6-.3,1.1-.6,1.7-.8h.3c.1-.2.3-.2.4-.3.6-.2,1.1-.3,1.8-.5.2,0,.5-.1.7-.2.5-.1,1.1-.2,1.6-.3.3,0,.6,0,.9-.1.5,0,1-.1,1.6-.1.3,0,.7,0,1,0,.3,0,.6,0,.9,0s.4,0,.6,0c.4,0,.7,0,1.1,0,.5,0,1,0,1.4.1.4,0,.8.1,1.1.2.5,0,.9.1,1.4.2.4,0,.7.2,1.2.3h.2c.4.1.7.2,1.1.3.3.1.7.2,1,.4h.2c0,0,.3.2.3.2.3,0,.6.2.8.3.3.1.7.3,1,.5h.3c0,.1.5.3.5.3.2,0,.4.2.6.3.4.2.7.4,1,.6l.3.2.5.3c.1,0,.3.2.4.2.4.3.8.6,1.3.9h.2c.2.3.4.4.6.5h.2c.7.7,1.4,1.3,2,1.9l22.9,22.9c.6.6,1.2,1.3,1.8,2v.2c.3.2.4.4.6.6v.2c.4.4.8.8,1,1.2,0,.1.2.3.2.4l.3.5.2.3c.2.3.4.7.6,1,.1.2.2.4.3.6l.2.5v.3c.3.3.5.7.6,1,.1.3.2.5.3.8v.4c.1,0,.2.2.2.2.1.3.3.7.4,1,.1.4.2.7.3,1.1v.3c.2.4.3.7.3,1.1,0,.4.2.9.2,1.3,0,.4.1.8.2,1.2,0,.5,0,1,.1,1.4,0,.4,0,.7,0,1.1,0,.5,0,1,0,1.5,0,.3,0,.7,0,1,0,.5,0,1-.1,1.6,0,.3,0,.6-.1.9,0,.5-.2,1.1-.3,1.6,0,.3-.1.5-.2.8-.1.6-.3,1.1-.5,1.7,0,.1,0,.3-.1.4v.3c-.3.6-.5,1.1-.8,1.7v.2c-.1,0-.3.4-.3.4-.3.6-.5,1.2-.9,1.8l-.2.4c-.4.7-.7,1.2-1,1.7,0,.1-.2.3-.3.4-.5.7-1,1.3-1.4,1.8-.6.8-1.1,1.3-1.6,1.8h0c0,0,0,.1,0,.1-11.2,11.8-28.2,18.3-47.7,18.3-36.5,0-78.4-22-118.2-62.1C31.9,143.3,9.8,101.1,10.2,64.4c.2-19.1,6.7-35.8,18.3-46.8h0c0,0,0-.1,0-.1.5-.5,1-1,1.8-1.6.5-.4,1.1-.9,1.8-1.4.1,0,.2-.2.4-.3.4-.3,1-.6,1.7-1l.4-.3c.6-.3,1.2-.6,1.8-.9l.4-.2h.2c.6-.3,1.1-.6,1.7-.8h.3c.1-.2.3-.2.4-.3.6-.2,1.1-.3,1.8-.5.2,0,.5-.1.7-.2.5-.1,1.1-.2,1.6-.3.3,0,.6,0,.9-.1.5,0,1-.1,1.6-.1.3,0,.7,0,1,0,.3,0,.6,0,.9,0"/>
        <path class="cls-1" d="M48.2,1c-.4,0-.8,0-1.2,0-.4,0-.9,0-1.3,0-.7,0-1.4.1-2.1.2-.4,0-.8.1-1.2.2-.7.1-1.4.2-2.1.4-.4,0-.7.2-1.1.3-.7.2-1.5.4-2.2.6-.3.1-.6.2-.9.3-.8.3-1.5.5-2.2.9-.3.1-.5.2-.8.4-.8.4-1.5.7-2.3,1.1-.2.1-.4.2-.6.4-.8.5-1.6.9-2.3,1.4-.1,0-.2.2-.4.3-.8.6-1.6,1.2-2.4,1.8h0c-.8.7-1.6,1.4-2.4,2.1C-9.1,41.7-11.9,111.8,66.3,189.4c46.4,46.7,90,64.5,124.1,64.5s41.7-8.1,53.8-20.9c.8-.8,1.5-1.6,2.1-2.4h0c.7-.8,1.2-1.6,1.8-2.4,0-.1.2-.2.3-.4.5-.8,1-1.5,1.4-2.3.1-.2.2-.4.4-.6.4-.7.8-1.5,1.1-2.3.1-.3.3-.5.4-.8.3-.7.6-1.5.9-2.2.1-.3.2-.6.3-.9.2-.7.4-1.4.6-2.2,0-.4.2-.7.3-1.1.2-.7.3-1.4.4-2.1,0-.4.1-.8.2-1.2,0-.7.1-1.4.2-2,0-.4,0-.9,0-1.3,0-.7,0-1.3,0-2,0-.5,0-.9,0-1.4,0-.6,0-1.2-.2-1.9,0-.5-.1-1-.2-1.5,0-.6-.2-1.2-.3-1.8-.1-.5-.3-1.1-.4-1.6-.1-.6-.3-1.1-.5-1.6-.2-.6-.4-1.1-.6-1.6-.2-.5-.4-1-.6-1.5-.2-.6-.5-1.1-.8-1.7-.2-.5-.4-.9-.7-1.4-.3-.6-.7-1.2-1-1.7-.3-.4-.5-.8-.8-1.2-.4-.6-.9-1.2-1.4-1.8-.2-.3-.5-.7-.7-1-.7-.9-1.5-1.8-2.4-2.6l-22.9-22.9c-.8-.8-1.7-1.6-2.6-2.4-.3-.3-.6-.5-1-.7-.6-.5-1.2-.9-1.9-1.4-.4-.3-.8-.5-1.2-.7-.6-.3-1.1-.7-1.7-1-.5-.2-.9-.5-1.4-.7-.6-.3-1.1-.5-1.7-.8-.5-.2-1-.4-1.5-.6-.5-.2-1.1-.4-1.6-.6s-1.1-.3-1.7-.5c-.5-.1-1-.3-1.6-.4-.6-.1-1.2-.2-1.8-.3-.5,0-1-.2-1.5-.2-.6,0-1.2-.1-1.9-.2-.5,0-.9,0-1.4,0-.3,0-.5,0-.8,0-.4,0-.8,0-1.2,0-.4,0-.9,0-1.3,0-.7,0-1.4.1-2.1.2-.4,0-.8.1-1.2.2-.7.1-1.4.2-2.1.4-.4,0-.7.2-1.1.3-.7.2-1.5.4-2.2.6-.3.1-.6.2-.9.3-.8.3-1.5.5-2.2.9-.3.1-.5.2-.8.4-.8.4-1.5.7-2.3,1.1-.2.1-.4.2-.6.4-.8.5-1.6.9-2.3,1.4-.1,0-.2.2-.4.3-.8.6-1.6,1.2-2.4,1.8h0c-.8.7-1.6,1.4-2.4,2.1l-15.5,15.5c-1,1-2.3,1.5-3.6,1.5s-2.6-.5-3.6-1.5l-67-67.1c-2-2-2-5.2,0-7.2l15.5-15.5c.8-.8,1.5-1.6,2.1-2.4h0c.7-.8,1.2-1.6,1.8-2.4,0-.1.2-.2.3-.4.5-.8,1-1.5,1.4-2.3.1-.2.2-.4.4-.6.4-.7.8-1.5,1.1-2.3.1-.3.3-.5.4-.8.3-.7.6-1.5.9-2.2.1-.3.2-.6.3-.9.2-.7.4-1.4.6-2.2,0-.4.2-.7.3-1.1.2-.7.3-1.4.4-2.1,0-.4.1-.8.2-1.2,0-.7.1-1.4.2-2,0-.4,0-.9,0-1.3,0-.7,0-1.3,0-2,0-.5,0-.9,0-1.4,0-.6,0-1.2-.2-1.9,0-.5-.1-1-.2-1.5,0-.6-.2-1.2-.3-1.8-.1-.5-.3-1.1-.4-1.6-.1-.6-.3-1.1-.5-1.6-.2-.6-.4-1.1-.6-1.6-.2-.5-.4-1-.6-1.5-.2-.6-.5-1.1-.8-1.7-.2-.5-.4-.9-.7-1.4-.3-.6-.7-1.2-1-1.7-.3-.4-.5-.8-.8-1.2-.4-.6-.9-1.2-1.4-1.8-.2-.3-.5-.7-.7-1-.7-.9-1.5-1.8-2.4-2.6l-22.9-22.9c-.8-.8-1.7-1.6-2.6-2.4-.3-.3-.6-.5-1-.7-.6-.5-1.2-.9-1.9-1.4-.4-.3-.8-.5-1.2-.7-.6-.3-1.1-.7-1.7-1-.5-.2-.9-.5-1.4-.7-.6-.3-1.1-.5-1.7-.8-.5-.2-1-.4-1.5-.6-.5-.2-1.1-.4-1.6-.6-.6-.2-1.1-.3-1.7-.5-.5-.1-1-.3-1.6-.4-.6-.1-1.2-.2-1.8-.3-.5,0-1-.2-1.5-.2-.6,0-1.2-.1-1.9-.2-.5,0-.9,0-1.4,0-.3,0-.5,0-.8,0h0Z"/>
      </g>
    </g>
  </g>
</svg>